<svg width="23" height="33" viewBox="0 0 23 33" fill="none" xmlns="http://www.w3.org/2000/svg">
<g clip-path="url(#clip0_280_364)">
<rect x="0.0742188" y="0.701172" width="22.3825" height="32" rx="8" fill="black"/>
<path d="M15.9887 1.50091C16.2494 1.82458 16.3823 2.2613 16.6482 3.13475L22.4567 22.2158C20.275 21.0836 17.9332 20.2908 15.5124 19.8647L11.7304 7.08439C11.7003 6.98245 11.6379 6.89302 11.5527 6.82948C11.4675 6.76593 11.364 6.73168 11.2577 6.73185C11.1514 6.73202 11.048 6.76659 10.9629 6.83041C10.8779 6.89422 10.8158 6.98384 10.786 7.08587L7.04987 19.8583C4.61806 20.2824 2.26556 21.0764 0.0742188 22.2129L5.91116 3.13029C6.17791 2.25842 6.31133 1.8224 6.57205 1.49934C6.80222 1.21415 7.1016 0.992671 7.44165 0.856013C7.82679 0.701172 8.28274 0.701172 9.19457 0.701172H13.3636C14.2766 0.701172 14.7331 0.701172 15.1187 0.856276C15.459 0.993265 15.7585 1.21521 15.9886 1.50091H15.9887Z" fill="white"/>
<path d="M16.6835 23.1241C15.726 23.9428 13.8147 24.5013 11.6132 24.5013C8.91118 24.5013 6.64643 23.6601 6.04551 22.5288C5.83061 23.1771 5.78243 23.9192 5.78243 24.3932C5.78243 24.3932 5.64088 26.7209 7.25985 28.3399C7.25985 27.4992 7.94138 26.8177 8.78204 26.8177C10.2229 26.8177 10.2212 28.0748 10.2199 29.0947L10.2199 29.1857C10.2199 30.7337 11.1659 32.0607 12.5114 32.62C12.3043 32.1937 12.197 31.7259 12.1977 31.252C12.1977 29.7756 13.0644 29.2259 14.0718 28.587C14.8733 28.0787 15.7639 27.5139 16.3776 26.381C16.7081 25.7706 16.8807 25.0873 16.8796 24.3932C16.8796 23.9508 16.8109 23.5244 16.6835 23.1241Z" fill="#FF5D01"/>
</g>
<defs>
<clipPath id="clip0_280_364">
<rect x="0.0742188" y="0.701172" width="22.3825" height="32" rx="8" fill="white"/>
</clipPath>
</defs>
</svg>
