<svg width="33" height="33" viewBox="0 0 33 33" fill="none" xmlns="http://www.w3.org/2000/svg">
<g clip-path="url(#clip0_280_328)">
<path d="M5.31781 29.8012L2.75 1H30.966L28.3954 29.7966L16.8407 33L5.31781 29.8012Z" fill="#264DE4"/>
<path d="M26.1024 27.6643L28.2991 3.05615H16.7656V30.2528L26.1024 27.6643Z" fill="#2965F1"/>
<path d="M8.54439 13.7379L8.86095 17.2703H16.7656V13.7379H8.54439ZM8.22933 10.1208H16.7656V6.58838H7.9082L8.22933 10.1208ZM16.7656 22.9118L16.7501 22.9159L12.8161 21.8537L12.5647 19.0364H9.0187L9.51364 24.5828L16.7494 26.5915L16.7656 26.5869V22.9118Z" fill="#EBEBEB"/>
<path d="M16.7539 13.7379V17.2703H21.1036L20.6936 21.8514L16.7539 22.9148V26.5898L23.9954 24.5828L24.0485 23.9859L24.8785 14.6864L24.9648 13.7379L25.6025 6.58838H16.7539V10.1208H21.7313L21.4098 13.7379H16.7539Z" fill="white"/>
</g>
<defs>
<clipPath id="clip0_280_328">
<rect width="32" height="32" fill="white" transform="translate(0.765625 0.701172)"/>
</clipPath>
</defs>
</svg>
