<svg width="31" height="33" viewBox="0 0 31 33" fill="none" xmlns="http://www.w3.org/2000/svg">
<rect x="0.3125" y="0.701172" width="29.9077" height="32" rx="12" fill="black"/>
<path d="M27.2656 23.302C26.3926 23.524 25.8526 23.3118 25.3681 22.5843L21.9226 17.8173L21.4246 17.1573L17.4009 22.6C16.9411 23.2548 16.4589 23.5398 15.6009 23.308L20.7534 16.3915L15.9564 10.144C16.7814 9.98354 17.3514 10.0653 17.8576 10.804L21.4314 15.6303L25.0314 10.8303C25.4926 10.1755 25.9884 9.92654 26.8164 10.168L24.9564 12.634L22.4364 15.9153C22.1364 16.2903 22.1776 16.5468 22.4536 16.909L27.2656 23.302ZM3.27163 16.276L3.69313 14.203C4.84062 10.1005 9.54313 8.39579 12.7861 10.9308C14.6814 12.4218 15.1524 14.5308 15.0586 16.8933H4.37563C4.21513 21.1458 7.27588 23.7123 11.1781 22.4028C12.5469 21.943 13.3531 20.8713 13.7566 19.5303C13.9614 18.8583 14.3004 18.7533 14.9319 18.9453C14.6094 20.6223 13.8819 22.0233 12.3444 22.9C10.0471 24.2125 6.76812 23.788 5.04312 21.964C4.01562 20.9058 3.59113 19.5648 3.40063 18.1308C3.37063 17.8938 3.31062 17.668 3.26562 17.4408C3.26962 17.0528 3.27163 16.6648 3.27163 16.2768V16.276ZM4.39513 15.991H14.0491C13.9861 12.916 12.0714 10.732 9.45463 10.7133C6.58212 10.6908 4.51963 12.823 4.39513 15.991Z" fill="#F5F5F5"/>
</svg>
