<svg width="23" height="33" viewBox="0 0 23 33" fill="none" xmlns="http://www.w3.org/2000/svg">
<g clip-path="url(#clip0_280_353)">
<mask id="mask0_280_353" style="mask-type:luminance" maskUnits="userSpaceOnUse" x="0" y="0" width="23" height="33">
<path d="M22.2982 0.701172H0.964844V32.7012H22.2982V0.701172Z" fill="white"/>
</mask>
<g mask="url(#mask0_280_353)">
<path d="M6.29816 32.7013C9.24216 32.7013 11.6315 30.312 11.6315 27.368V22.0347H6.29816C3.35418 22.0347 0.964844 24.424 0.964844 27.368C0.964844 30.312 3.35418 32.7013 6.29816 32.7013Z" fill="#0ACF83"/>
<path d="M0.964844 16.701C0.964844 13.757 3.35418 11.3677 6.29816 11.3677H11.6315V22.0344H6.29816C3.35418 22.0344 0.964844 19.645 0.964844 16.701Z" fill="#A259FF"/>
<path d="M0.964844 6.03449C0.964844 3.0905 3.35418 0.701172 6.29816 0.701172H11.6315V11.3679H6.29816C3.35418 11.3679 0.964844 8.97849 0.964844 6.03449Z" fill="#F24E1E"/>
<path d="M11.6309 0.701172H16.9642C19.9082 0.701172 22.2975 3.0905 22.2975 6.03449C22.2975 8.97849 19.9082 11.3679 16.9642 11.3679H11.6309V0.701172Z" fill="#FF7262"/>
<path d="M22.2975 16.701C22.2975 19.645 19.9082 22.0344 16.9642 22.0344C14.0202 22.0344 11.6309 19.645 11.6309 16.701C11.6309 13.757 14.0202 11.3677 16.9642 11.3677C19.9082 11.3677 22.2975 13.757 22.2975 16.701Z" fill="#1ABCFE"/>
</g>
</g>
<defs>
<clipPath id="clip0_280_353">
<rect width="21.6" height="32" fill="white" transform="translate(0.964844 0.701172)"/>
</clipPath>
</defs>
</svg>
