<svg width="33" height="33" viewBox="0 0 33 33" fill="none" xmlns="http://www.w3.org/2000/svg">
<g clip-path="url(#clip0_281_450)">
<path d="M31.4118 15.2763L17.4406 1.30376C17.0541 0.917599 16.5301 0.700684 15.9837 0.700684C15.4373 0.700684 14.9133 0.917599 14.5268 1.30376L11.6256 4.20376L15.3056 7.88501C15.7396 7.73693 16.2065 7.71383 16.653 7.81833C17.0995 7.92283 17.5076 8.15073 17.8308 8.47602C18.154 8.80132 18.3793 9.21092 18.4809 9.65808C18.5826 10.1052 18.5564 10.572 18.4056 11.005L21.9518 14.5525C22.4819 14.3703 23.0584 14.3752 23.5853 14.5665C24.1122 14.7578 24.5575 15.1239 24.8472 15.6037C25.1369 16.0836 25.2534 16.6482 25.1773 17.2035C25.1012 17.7589 24.837 18.2713 24.4289 18.6555C24.0207 19.0397 23.4932 19.2724 22.9343 19.3148C22.3754 19.3572 21.8188 19.2068 21.3574 18.8887C20.8959 18.5705 20.5574 18.1038 20.3983 17.5663C20.2392 17.0289 20.2691 16.4531 20.4831 15.935L17.1756 12.6263V21.3313C17.6783 21.5798 18.0806 21.9932 18.3155 22.5025C18.5504 23.0118 18.6037 23.5862 18.4664 24.13C18.3291 24.6737 18.0096 25.154 17.5612 25.4908C17.1127 25.8276 16.5624 26.0005 16.0019 25.9806C15.4414 25.9608 14.9046 25.7495 14.4811 25.382C14.0575 25.0144 13.7727 24.5127 13.6742 23.9606C13.5756 23.4085 13.6693 22.8393 13.9395 22.3479C14.2098 21.8564 14.6403 21.4725 15.1593 21.26V12.4763C14.8599 12.3536 14.5877 12.1728 14.3584 11.9444C14.1292 11.716 13.9475 11.4445 13.8237 11.1455C13.6999 10.8465 13.6366 10.5259 13.6374 10.2023C13.6381 9.87869 13.7029 9.55844 13.8281 9.26001L10.1981 5.63126L0.619327 15.2113C0.232783 15.5978 0.015625 16.1221 0.015625 16.6688C0.015625 17.2154 0.232783 17.7397 0.619327 18.1263L14.5906 32.0975C14.9771 32.4841 15.5014 32.7012 16.0481 32.7012C16.5947 32.7012 17.119 32.4841 17.5056 32.0975L31.4118 18.1913C31.7984 17.8045 32.0156 17.28 32.0156 16.7331C32.0156 16.1863 31.7984 15.6618 31.4118 15.275" fill="#DE4C36"/>
</g>
<defs>
<clipPath id="clip0_281_450">
<rect width="32" height="32" fill="white" transform="translate(0.015625 0.701172)"/>
</clipPath>
</defs>
</svg>
