<svg width="33" height="33" viewBox="0 0 33 33" fill="none" xmlns="http://www.w3.org/2000/svg">
<g clip-path="url(#clip0_281_453)">
<rect x="0.265625" y="0.701172" width="32" height="32" rx="16" fill="black"/>
<path fill-rule="evenodd" clip-rule="evenodd" d="M16.2656 0.701172C7.42562 0.701172 0.265625 7.86117 0.265625 16.7012C0.265625 23.7812 4.84562 29.7612 11.2056 31.8812C12.0056 32.0212 12.3056 31.5412 12.3056 31.1212C12.3056 30.7412 12.2856 29.4812 12.2856 28.1412C8.26562 28.8812 7.22563 27.1612 6.90562 26.2612C6.72563 25.8012 5.94562 24.3812 5.26562 24.0012C4.70563 23.7012 3.90562 22.9612 5.24563 22.9412C6.50562 22.9212 7.40562 24.1012 7.70563 24.5812C9.14563 27.0012 11.4456 26.3212 12.3656 25.9012C12.5056 24.8612 12.9256 24.1612 13.3856 23.7612C9.82562 23.3612 6.10563 21.9812 6.10563 15.8612C6.10563 14.1212 6.72563 12.6812 7.74563 11.5612C7.58563 11.1612 7.02562 9.52117 7.90562 7.32117C7.90562 7.32117 9.24562 6.90117 12.3056 8.96117C13.5856 8.60117 14.9456 8.42117 16.3056 8.42117C17.6656 8.42117 19.0256 8.60117 20.3056 8.96117C23.3656 6.88117 24.7056 7.32117 24.7056 7.32117C25.5856 9.52117 25.0256 11.1612 24.8656 11.5612C25.8856 12.6812 26.5056 14.1012 26.5056 15.8612C26.5056 22.0012 22.7656 23.3612 19.2056 23.7612C19.7856 24.2612 20.2856 25.2212 20.2856 26.7212C20.2856 28.8612 20.2656 30.5812 20.2656 31.1212C20.2656 31.5412 20.5656 32.0412 21.3656 31.8812C27.6856 29.7612 32.2656 23.7612 32.2656 16.7012C32.2656 7.86117 25.1056 0.701172 16.2656 0.701172Z" fill="white"/>
</g>
<defs>
<clipPath id="clip0_281_453">
<rect x="0.265625" y="0.701172" width="32" height="32" rx="16" fill="white"/>
</clipPath>
</defs>
</svg>
