<svg width="65" height="24" viewBox="0 0 65 24" fill="none" xmlns="http://www.w3.org/2000/svg">
<g clip-path="url(#clip0_280_439)">
<path d="M19.0993 10.9298V10.9399L18.2603 14.5817C18.215 14.7877 18.009 14.9384 17.7717 14.9384H16.7579C16.7213 14.9385 16.6858 14.9505 16.6565 14.9724C16.6273 14.9943 16.6059 15.0251 16.5955 15.0601C15.6605 18.232 14.3945 20.4119 12.7227 21.7208C11.3007 22.8353 9.5477 23.3551 7.20546 23.3551C5.10126 23.3551 3.68234 22.6785 2.47883 21.3423C0.888191 19.5768 0.23102 16.6859 0.629069 13.2033C1.34712 6.6652 4.73834 0.0677339 11.2679 0.0677339C13.2542 0.0505632 14.8137 0.663246 15.8985 1.88627C17.0459 3.18032 17.6281 5.12842 17.6312 7.67905C17.6284 7.79086 17.582 7.89714 17.502 7.97528C17.4219 8.05341 17.3146 8.09723 17.2027 8.09739H12.4183C12.3345 8.09482 12.2548 8.06021 12.1958 8.00068C12.1367 7.94116 12.1026 7.86124 12.1007 7.77739C12.0617 6.01349 11.5387 5.15495 10.4991 5.15495C8.66497 5.15495 7.58322 7.64471 7.00956 9.02461C6.208 10.9524 5.7998 13.0465 5.88019 15.1319C5.91844 16.1029 6.07453 17.4679 6.99629 18.0338C7.81346 18.5349 8.97951 18.2024 9.68585 17.6474C10.3914 17.0917 10.9596 16.131 11.1984 15.2545C11.232 15.1327 11.2343 15.0383 11.2023 14.9961C11.1688 14.9524 11.0759 14.9423 11.0049 14.9423H9.77639C9.71136 14.9425 9.64708 14.9285 9.58803 14.9012C9.52898 14.874 9.47659 14.8342 9.43453 14.7846C9.40226 14.7459 9.37934 14.7003 9.36756 14.6513C9.35579 14.6023 9.35547 14.5512 9.36663 14.5021L10.2064 10.8541C10.2478 10.6675 10.4172 10.5263 10.6256 10.5013V10.4919H18.688C18.7067 10.4919 18.7262 10.4919 18.7442 10.4958C18.9534 10.5231 19.1009 10.7175 19.097 10.9298H19.0993Z" fill="#FFE052"/>
<g clip-path="url(#clip1_280_439)">
<path d="M32.98 6.74487C32.9764 6.85585 32.9297 6.96107 32.8499 7.03827C32.7701 7.11546 32.6634 7.15859 32.5523 7.15853H28.1457C27.8569 7.15853 27.6157 6.92438 27.6157 6.63951C27.6157 5.35404 27.1709 4.72809 26.2608 4.72809C25.3508 4.72809 24.7638 5.28692 24.7467 6.26331C24.7272 7.35209 25.343 8.34175 27.0959 10.0417C29.4038 12.2067 30.3287 14.1244 30.2842 16.6594C30.2116 20.7585 27.4245 23.4083 23.1834 23.4083C21.0175 23.4083 19.3629 22.8292 18.2624 21.6865C17.1455 20.5259 16.6335 18.8229 16.7404 16.6251C16.7441 16.514 16.7909 16.4086 16.8708 16.3314C16.9508 16.2542 17.0577 16.2111 17.1689 16.2114H21.727C21.7905 16.2124 21.8529 16.2275 21.9099 16.2556C21.9668 16.2837 22.0169 16.324 22.0563 16.3738C22.0908 16.4149 22.116 16.4629 22.1303 16.5146C22.1445 16.5663 22.1475 16.6205 22.1391 16.6735C22.0883 17.4664 22.2265 18.0588 22.5387 18.3866C22.7385 18.5989 23.0171 18.7066 23.3644 18.7066C24.2066 18.7066 24.6998 18.1119 24.7186 17.0754C24.7342 16.1794 24.4509 15.3942 22.9071 13.8059C20.9129 11.8578 19.1248 9.84497 19.1802 6.68009C19.213 4.84438 19.942 3.16556 21.2337 1.95268C22.5995 0.671116 24.4673 -0.00634766 26.6355 -0.00634766C28.8075 0.0092621 30.4536 0.628969 31.5283 1.8356C32.5461 2.97902 33.0355 4.63053 32.9816 6.74487H32.98Z" fill="#41873F"/>
<path d="M46.6387 22.6373L46.6676 0.835934C46.6684 0.781337 46.6583 0.727124 46.6379 0.676481C46.6175 0.625838 46.5872 0.579785 46.5487 0.54103C46.5102 0.502275 46.4644 0.471598 46.4139 0.450802C46.3634 0.430007 46.3093 0.419512 46.2547 0.419934H39.4348C39.2053 0.419934 39.1047 0.617398 39.0391 0.747739L29.1644 22.5038V22.5077L29.1605 22.5132C29.0512 22.7809 29.2588 23.0674 29.5484 23.0674H34.3156C34.5731 23.0674 34.7441 22.9893 34.8276 22.827L35.7743 20.5518C35.8906 20.2482 35.9125 20.2201 36.2434 20.2201H40.7983C41.1152 20.2201 41.1214 20.2264 41.1167 20.5362L41.0145 22.6514C41.0137 22.7059 41.0237 22.76 41.0441 22.8106C41.0645 22.8612 41.0947 22.9072 41.1331 22.946C41.1715 22.9847 41.2172 23.0154 41.2676 23.0363C41.318 23.0571 41.3721 23.0677 41.4266 23.0674H46.243C46.3026 23.0681 46.3617 23.0557 46.416 23.0312C46.4704 23.0067 46.5187 22.9705 46.5575 22.9253C46.5911 22.886 46.6157 22.8399 46.6297 22.7902C46.6437 22.7405 46.6468 22.6883 46.6387 22.6373ZM38.2016 15.3585C38.1657 15.3587 38.1298 15.3574 38.0939 15.3546C38.0772 15.3532 38.061 15.3482 38.0465 15.3398C38.0319 15.3315 38.0194 15.3201 38.0097 15.3064C38 15.2927 37.9935 15.2771 37.9905 15.2606C37.9875 15.2441 37.9882 15.2272 37.9925 15.211C38.0018 15.1797 38.0151 15.1368 38.0346 15.0845L41.45 6.6334C41.4807 6.55001 41.5162 6.46845 41.5562 6.38911C41.6116 6.27515 41.6787 6.26735 41.6998 6.35164C41.7177 6.42189 41.308 15.0291 41.308 15.0291C41.276 15.3514 41.2611 15.3647 40.9435 15.3913L38.2047 15.36H38.1985L38.2016 15.3585Z" fill="#41873F"/>
<path d="M56.3537 0.419822H52.733C52.5418 0.419822 52.3272 0.521285 52.2772 0.749188L47.2384 22.6263C47.2274 22.6756 47.2279 22.7268 47.2398 22.7759C47.2517 22.825 47.2747 22.8708 47.3071 22.9096C47.3491 22.959 47.4013 22.9987 47.4602 23.026C47.5191 23.0532 47.5833 23.0673 47.6481 23.0672H52.1734C52.4169 23.0672 52.5832 22.9478 52.6284 22.741L53.1779 20.2614C53.2169 20.0678 53.1498 19.918 52.9765 19.8274C52.8952 19.7856 52.814 19.7434 52.733 19.701L51.9486 19.2928L51.1681 18.8854L50.8661 18.7285C50.8415 18.7163 50.8209 18.6973 50.8067 18.6738C50.7925 18.6503 50.7852 18.6233 50.7857 18.5958C50.7867 18.5552 50.8036 18.5166 50.8328 18.4882C50.862 18.4599 50.9011 18.4442 50.9418 18.4444L53.4214 18.4553C54.1629 18.4592 54.9051 18.4069 55.6349 18.2727C60.7705 17.3244 64.1812 13.2112 64.2796 7.61436C64.3638 2.83777 61.6977 0.41748 56.3576 0.41748L56.3537 0.419822ZM55.1213 13.4384H55.0245C54.8068 13.4384 54.7685 13.4149 54.7623 13.4071C54.7584 13.4017 56.1921 7.10626 56.1929 7.09768C56.2296 6.91582 56.228 6.81124 56.1157 6.74958C55.972 6.66997 53.8788 5.56636 53.8788 5.56636C53.8544 5.55356 53.8341 5.5342 53.8202 5.51048C53.8063 5.48676 53.7993 5.45962 53.7999 5.43212C53.801 5.39202 53.8176 5.3539 53.8463 5.32591C53.8751 5.29791 53.9136 5.28225 53.9537 5.28226H57.2638C58.294 5.31348 58.8684 6.23524 58.8411 7.80948C58.7935 10.5342 57.4979 13.3424 55.1213 13.4384Z" fill="#41873F"/>
</g>
</g>
<defs>
<clipPath id="clip0_280_439">
<rect width="64" height="23.4146" fill="white" transform="translate(0.515625 -0.00634766)"/>
</clipPath>
<clipPath id="clip1_280_439">
<rect width="64" height="23.4146" fill="white" transform="translate(0.515625 -0.00634766)"/>
</clipPath>
</defs>
</svg>
