<svg width="29" height="33" viewBox="0 0 29 33" fill="none" xmlns="http://www.w3.org/2000/svg">
<g clip-path="url(#clip0_280_322)">
<path d="M3.13051 27.8183L0.607422 -0.40625H28.3614L25.8383 27.8183L14.4536 31.0089" fill="#E34F26"/>
<path d="M14.5156 29.7473L23.6849 27.2243L25.8387 2.97803H14.5156" fill="#EF652A"/>
<path d="M14.5158 13.5012H9.90043L9.59274 9.932H14.5158V6.48584H5.77734L6.70042 17.009H14.5158V13.5012ZM14.5158 22.5474L10.5774 21.5013L10.3312 18.732H6.88504L7.31581 24.209L14.5158 26.1782V22.5474Z" fill="#ECEDEE"/>
<path d="M14.5156 17.009H18.7618L18.331 21.5013L14.5156 22.5474V26.1782L21.5926 24.209L22.5772 13.5012H14.5156V17.009ZM14.5156 6.48584V9.932H22.8849L23.1926 6.48584H14.5156Z" fill="white"/>
</g>
<defs>
<clipPath id="clip0_280_322">
<rect width="27.8155" height="32.0001" fill="white" transform="translate(0.607422 0.701172)"/>
</clipPath>
</defs>
</svg>
