<svg width="33" height="33" viewBox="0 0 33 33" fill="none" xmlns="http://www.w3.org/2000/svg">
<g clip-path="url(#clip0_280_334)">
<path d="M0.015625 0.701172H32.0156V32.7012H0.015625V0.701172Z" fill="#F0DB4F"/>
<path d="M29.3961 25.0691C29.1619 23.609 28.2098 22.3832 25.39 21.2395C24.4106 20.7893 23.3186 20.4669 22.9931 19.7246C22.8775 19.2927 22.8623 19.0493 22.9353 18.7878C23.1452 17.9391 24.1581 17.6744 24.9611 17.9178C25.4783 18.0912 25.968 18.4897 26.263 19.1254C27.644 18.2311 27.641 18.2372 28.6052 17.6228C28.2524 17.0752 28.0638 16.8227 27.8326 16.5885C27.0022 15.6608 25.8706 15.1832 24.0608 15.2197C23.7475 15.2593 23.4311 15.3018 23.1178 15.3414C22.2144 15.5695 21.3535 16.0441 20.8486 16.6798C19.3338 18.3984 19.7657 21.4068 21.6091 22.6448C23.425 24.0076 26.0927 24.3178 26.4334 25.5923C26.7649 27.1528 25.2866 27.6577 23.8174 27.4783C22.7345 27.2532 22.1323 26.7026 21.4813 25.7018C20.2828 26.3954 20.2828 26.3954 19.0509 27.1041C19.3429 27.7429 19.6501 28.0319 20.1399 28.5855C22.4578 30.9368 28.2585 30.8212 29.2988 27.2623C29.3414 27.1406 29.6213 26.3254 29.3961 25.0691ZM17.4113 15.4083H14.4182C14.4182 17.9938 14.406 20.5611 14.406 23.1467C14.406 24.7923 14.4912 26.3011 14.2235 26.7634C13.7855 27.6729 12.6509 27.5604 12.1338 27.3839C11.6076 27.1254 11.3399 26.7573 11.0296 26.2372C10.9444 26.0881 10.8806 25.9725 10.8592 25.9634C10.0471 26.4592 9.23795 26.9581 8.42578 27.4539C8.83037 28.2843 9.42654 29.0052 10.19 29.4737C11.3307 30.1581 12.8638 30.3679 14.4669 29.9999C15.5102 29.6957 16.4106 29.0661 16.8821 28.1079C17.5634 26.8516 17.4174 25.3307 17.4113 23.6486C17.4265 20.9049 17.4113 18.1611 17.4113 15.4083Z" fill="#323330"/>
</g>
<defs>
<clipPath id="clip0_280_334">
<rect width="32" height="32" fill="white" transform="translate(0.015625 0.701172)"/>
</clipPath>
</defs>
</svg>
