<svg width="23" height="49" viewBox="0 0 23 49" fill="none" xmlns="http://www.w3.org/2000/svg">
<g clip-path="url(#clip0_282_456)">
<path d="M15.321 6.33094C13.3136 3.94925 11.585 1.53022 11.2319 1.0279C11.2235 1.01908 11.2134 1.01206 11.2022 1.00727C11.191 1.00247 11.1789 1 11.1668 1C11.1546 1 11.1426 1.00247 11.1314 1.00727C11.1202 1.01206 11.1101 1.01908 11.1017 1.0279C10.7486 1.5303 9.01993 3.94925 7.01249 6.33094C-10.2177 28.3059 9.72629 43.1359 9.72629 43.1359L9.89353 43.2476C10.0422 45.5362 10.414 48.8298 10.414 48.8298H11.901C11.901 48.8298 12.2726 45.5548 12.4213 43.2476L12.5887 43.1173C12.6073 43.136 32.5512 28.306 15.321 6.33094ZM11.1574 42.8009C11.1574 42.8009 10.2653 42.0381 10.0236 41.6474V41.6101L11.1017 17.6813C11.1017 17.6069 11.2133 17.6069 11.2133 17.6813L12.2913 41.6101V41.6474C12.0496 42.0381 11.1574 42.801 11.1574 42.801V42.8009Z" fill="#01EC64"/>
</g>
<defs>
<clipPath id="clip0_282_456">
<rect width="22.333" height="47.8938" fill="white" transform="translate(0.349609 0.700684)"/>
</clipPath>
</defs>
</svg>
