<svg width="49" height="49" viewBox="0 0 49 49" fill="none" xmlns="http://www.w3.org/2000/svg">
<g clip-path="url(#clip0_282_459)">
<path d="M24.3431 0.700684C12.1841 0.700684 12.9429 5.97349 12.9429 5.97349L12.9579 11.4364H24.5602V13.0752H8.34661C8.34661 13.0752 0.568359 12.1922 0.568359 24.462C0.568359 36.7288 7.3588 36.2948 7.3588 36.2948H11.4118V30.6014C11.4118 30.6014 11.1933 23.8109 18.0945 23.8109H29.601C29.601 23.8109 36.0666 23.9157 36.0666 17.5623V7.05709C36.0666 7.05709 37.0485 0.700684 24.3431 0.700684ZM17.9448 4.37354C18.4986 4.37354 19.0296 4.59351 19.4212 4.98506C19.8127 5.37662 20.0327 5.90767 20.0327 6.46141C20.0327 7.01515 19.8127 7.54621 19.4212 7.93776C19.0296 8.32931 18.4986 8.54928 17.9448 8.54928C17.6705 8.54967 17.3989 8.49594 17.1454 8.39115C16.8919 8.28637 16.6616 8.13259 16.4676 7.93864C16.2737 7.74468 16.1199 7.51436 16.0151 7.26087C15.9103 7.00738 15.8566 6.73571 15.857 6.46141C15.857 5.30747 16.7909 4.37354 17.9448 4.37354Z" fill="url(#paint0_linear_282_459)"/>
<path d="M24.6864 48.3445C36.8455 48.3445 36.0866 43.0717 36.0866 43.0717L36.0717 37.6088H24.4694V35.9699H40.6814C40.6814 35.9699 48.4612 36.853 48.4612 24.5847C48.4612 12.3164 41.6708 12.7519 41.6708 12.7519H37.6177V18.4438C37.6177 18.4438 37.8363 25.2342 30.9351 25.2342H19.4286C19.4286 25.2342 12.9629 25.1295 12.9629 31.4829V41.9881C12.9629 41.9881 11.9811 48.3445 24.6864 48.3445ZM31.0847 44.6716C30.8104 44.672 30.5388 44.6183 30.2853 44.5135C30.0318 44.4087 29.8015 44.255 29.6075 44.061C29.4135 43.867 29.2598 43.6367 29.155 43.3832C29.0502 43.1297 28.9965 42.8581 28.9969 42.5838C28.9971 42.1713 29.1197 41.7681 29.3491 41.4252C29.5785 41.0823 29.9043 40.8152 30.2855 40.6574C30.6667 40.4997 31.0861 40.4585 31.4906 40.5391C31.8952 40.6196 32.2668 40.8183 32.5585 41.11C32.8502 41.4017 33.0489 41.7733 33.1294 42.1779C33.21 42.5824 33.1688 43.0018 33.0111 43.383C32.8533 43.7642 32.5862 44.09 32.2433 44.3194C31.9004 44.5488 31.4972 44.6713 31.0847 44.6716Z" fill="url(#paint1_linear_282_459)"/>
</g>
<defs>
<linearGradient id="paint0_linear_282_459" x1="5.17066" y1="4.86445" x2="28.8526" y2="28.6258" gradientUnits="userSpaceOnUse">
<stop stop-color="#387EB8"/>
<stop offset="1" stop-color="#366994"/>
</linearGradient>
<linearGradient id="paint1_linear_282_459" x1="19.7384" y1="19.9809" x2="45.173" y2="44.3484" gradientUnits="userSpaceOnUse">
<stop stop-color="#FFE052"/>
<stop offset="1" stop-color="#FFC331"/>
</linearGradient>
<clipPath id="clip0_282_459">
<rect width="47.8938" height="47.8938" fill="white" transform="translate(0.568359 0.700684)"/>
</clipPath>
</defs>
</svg>
