<svg width="49" height="44" viewBox="0 0 49 44" fill="none" xmlns="http://www.w3.org/2000/svg">
<g clip-path="url(#clip0_282_463)">
<path d="M24.5991 17.5132C22.0656 17.5132 20.0117 19.567 20.0117 22.1006C20.0117 24.6341 22.0656 26.6879 24.5991 26.6879C27.1326 26.6879 29.1865 24.6341 29.1865 22.1006C29.1865 19.567 27.1326 17.5132 24.5991 17.5132Z" fill="#58C4DC"/>
<path d="M48.4588 22.1423C48.4588 18.5408 45.1238 15.3822 39.8137 13.3034C39.8846 12.8353 39.9488 12.3722 39.9944 11.9176C40.5182 6.74277 39.2713 3.00782 36.4854 1.39892C33.3682 -0.400958 28.9654 0.90543 24.5136 4.468C20.0618 0.90543 15.6589 -0.400958 12.5418 1.39892C9.75584 3.00782 8.50899 6.74277 9.03274 11.9176C9.07835 12.3722 9.14086 12.837 9.21351 13.3068C8.77086 13.4758 8.33666 13.655 7.91936 13.8426C3.17863 15.9737 0.568359 18.9245 0.568359 22.1423C0.568359 25.7437 3.90343 28.9024 9.21351 30.9811C9.14086 31.4492 9.07835 31.9123 9.03274 32.3669C8.50899 37.5418 9.75584 41.2767 12.5418 42.8856C13.4997 43.4288 14.585 43.7065 15.686 43.6901C18.325 43.6901 21.4066 42.3009 24.5136 39.8165C27.6189 42.3009 30.7022 43.6901 33.3446 43.6901C34.4455 43.7062 35.5308 43.4286 36.4887 42.8856C39.2747 41.2767 40.5216 37.5418 39.9978 32.3669C39.9522 31.9123 39.888 31.4492 39.817 30.9811C45.1271 28.9057 48.4622 25.742 48.4622 22.1423M33.3243 2.876C34.0322 2.85892 34.7319 3.0304 35.3517 3.37287C37.2862 4.48997 38.1546 7.52018 37.7322 11.6861C37.7035 11.97 37.6697 12.2573 37.6292 12.5463C35.4212 11.8812 33.1602 11.4068 30.8712 11.1284C29.4835 9.2833 27.9404 7.5605 26.2588 5.97888C28.8995 3.93733 31.378 2.876 33.3226 2.876M32.4154 26.7053C31.5609 28.1889 30.6304 29.6273 29.6277 31.0149C27.928 31.1895 26.2205 31.2764 24.5119 31.2752C22.8039 31.2764 21.0969 31.1895 19.3978 31.0149C18.3977 29.6273 17.4701 28.1888 16.6186 26.7053C15.7641 25.2259 14.9876 23.7028 14.2921 22.1423C14.9876 20.5817 15.7641 19.0586 16.6186 17.5792C17.4688 16.1017 18.3935 14.6684 19.3893 13.2849C21.0916 13.1059 22.802 13.0168 24.5136 13.0178C26.2216 13.0168 27.9286 13.1037 29.6277 13.2781C30.6269 14.6637 31.5551 16.0993 32.4086 17.5792C33.2624 19.059 34.0389 20.5821 34.735 22.1423C34.0389 23.7025 33.2624 25.2255 32.4086 26.7053M35.8974 25.0153C36.4336 26.4779 36.8738 27.9739 37.2152 29.4939C35.7337 29.9559 34.2234 30.32 32.6941 30.5839C33.2753 29.7074 33.8385 28.7953 34.3836 27.8478C34.9226 26.9115 35.4277 25.9668 35.9042 25.0221M21.3052 33.4536C22.3561 33.5178 23.4289 33.555 24.5153 33.555C25.6016 33.555 26.6812 33.5178 27.7338 33.4536C26.7358 34.6493 25.6607 35.7784 24.5153 36.8337C23.3724 35.7786 22.3 34.6494 21.3052 33.4536ZM16.3347 30.5806C14.805 30.3178 13.2941 29.9548 11.812 29.4939C12.152 27.9763 12.5905 26.4826 13.1247 25.0221C13.5944 25.9668 14.0978 26.9115 14.6452 27.8478C15.1926 28.7841 15.7586 29.7068 16.3347 30.5839M13.1247 19.2608C12.5924 17.8057 12.155 16.3176 11.8153 14.8059C13.2938 14.3444 14.8006 13.9792 16.3263 13.7124C15.7485 14.5862 15.1825 15.492 14.6368 16.4368C14.0911 17.3815 13.5927 18.3144 13.1162 19.2608M27.7236 10.8293C26.6728 10.765 25.5999 10.7278 24.5051 10.7278C23.4194 10.7278 22.3493 10.7617 21.2951 10.8293C22.2899 9.63341 23.3622 8.50429 24.5051 7.4492C25.651 8.50401 26.7261 9.63314 27.7236 10.8293ZM34.3802 16.4368C33.8329 15.4881 33.2669 14.5755 32.6823 13.6989C34.2156 13.9628 35.7299 14.3275 37.2152 14.7907C36.8744 16.308 36.4359 17.8017 35.9025 19.2625C35.4328 18.3177 34.9276 17.373 34.3819 16.4384M11.3017 11.6878C10.8743 7.52356 11.7478 4.49166 13.6805 3.37456C14.3006 3.03262 15.0001 2.86118 15.7079 2.87769C17.6525 2.87769 20.131 3.93902 22.7717 5.98057C21.089 7.56331 19.5448 9.28723 18.156 11.1335C15.8676 11.4132 13.6069 11.8858 11.398 12.5463C11.3592 12.2573 11.3237 11.9717 11.2967 11.6878M8.85534 15.923C9.11552 15.8103 9.38077 15.6976 9.65109 15.585C10.1825 17.8277 10.9031 20.0214 11.8052 22.1423C10.9014 24.2674 10.1802 26.4656 9.6494 28.7131C5.34457 26.947 2.84918 24.4999 2.84918 22.1423C2.84918 19.9081 5.04552 17.6417 8.85534 15.923ZM13.6805 40.91C11.7478 39.7929 10.8743 36.761 11.3017 32.5968C11.3288 32.3128 11.3642 32.0272 11.4031 31.7365C13.6111 32.4015 15.8721 32.8759 18.1611 33.1545C19.5492 35.0002 21.0922 36.7241 22.7734 38.3074C19.092 41.1517 15.7282 42.0896 13.6856 40.91M37.7305 32.5968C38.1529 36.7627 37.2845 39.7929 35.35 40.91C33.3091 42.093 29.9436 41.1517 26.2639 38.3074C27.9446 36.7241 29.487 35.0002 30.8745 33.1545C33.1636 32.8761 35.4246 32.4017 37.6325 31.7365C37.6731 32.0272 37.7069 32.3128 37.7356 32.5968M39.3879 28.7097C38.8556 26.4635 38.1338 24.2665 37.2304 22.1423C38.1334 20.0169 38.8546 17.8188 39.3862 15.5715C43.6826 17.3375 46.1848 19.7847 46.1848 22.1423C46.1848 24.4999 43.6894 26.947 39.3845 28.7131" fill="#58C4DC"/>
</g>
<defs>
<clipPath id="clip0_282_463">
<rect width="47.8938" height="43.096" fill="white" transform="translate(0.568359 0.594727)"/>
</clipPath>
</defs>
</svg>
