<svg width="49" height="48" viewBox="0 0 49 48" fill="none" xmlns="http://www.w3.org/2000/svg">
<g clip-path="url(#clip0_280_372)">
<path d="M44.4707 36.4233C41.8515 36.4233 39.7936 36.6103 38.1098 37.3587C37.5485 37.5458 36.8002 37.5458 36.8002 38.107L37.3614 39.2295C37.7356 39.7908 38.2969 40.7262 39.0452 41.2875L41.1032 42.7842L45.0319 44.655L47.0899 46.3388L48.2124 47.0871L47.6511 45.9646L46.7157 45.0292C45.7803 43.7196 44.6578 42.5971 43.3482 41.6616C42.2257 41.1004 39.9806 39.9779 39.6065 38.8554H39.4194L41.6644 38.2941L45.0319 37.7328L46.5286 37.3587V36.9845L44.8449 35.1137C43.3482 33.617 41.4773 32.3074 39.6065 30.9978L36.2389 29.5011C35.8648 29.314 35.1164 29.1269 34.9293 28.7527L33.6197 26.3206L30.8134 20.7081L29.3168 16.9664C25.9492 11.3538 22.2075 7.98624 16.5949 4.80579C15.4724 4.05745 13.9757 3.87036 12.4791 3.49619L10.047 3.30911L8.55027 2.18659C6.67941 1.06408 1.81519 -1.55512 0.505588 1.81242C-0.42984 3.87036 1.81519 5.9283 2.56353 7.05082L4.2473 9.48293L4.80856 11.1667C5.36981 12.6634 5.74398 14.3472 6.49233 15.6568L7.61484 17.5276C7.98901 17.9018 8.36318 18.0889 8.55027 18.6501C7.98901 19.3985 7.98901 20.3339 7.80192 21.0822C6.49233 24.8239 7.05358 29.314 8.73735 32.1203C9.11152 32.8686 10.4211 34.7395 12.1049 33.9911C13.6016 33.4299 13.2274 31.559 13.6016 29.8753L13.7887 29.1269L15.2853 31.7461C16.2208 33.4299 17.9045 35.1137 19.4012 36.2362C20.1496 36.7974 20.8979 37.7328 21.8333 38.107L21.085 37.3587L19.4012 35.4878C17.9045 33.617 16.782 31.559 15.6595 29.5011L14.3499 26.3206L13.7887 25.1981C13.2274 25.9465 12.4791 26.5077 12.1049 27.4431C11.5436 28.7527 11.5436 30.6236 11.3566 32.3074H11.1695C10.047 32.1203 9.67278 30.9978 9.29861 30.0623C8.36318 27.8173 8.1761 24.0756 9.11152 21.4564C9.29861 20.7081 10.234 18.6501 9.85987 17.9018C9.67278 17.3405 9.11152 16.9664 8.73735 16.5922L7.42775 14.3472L5.5569 8.73459L3.87313 6.30247C3.31187 5.36705 2.56353 4.80579 2.00227 3.68328C1.81519 3.30911 1.6281 2.74785 2.00227 2.37368L2.37644 1.99951C2.75061 1.62533 4.06021 1.99951 4.43438 2.18659C5.5569 2.74785 6.67941 3.12202 7.61484 3.87036L9.11152 4.99288H9.85987C10.9824 5.17996 12.1049 4.99288 13.0403 5.36705C14.7241 5.9283 16.4079 6.67665 17.7175 7.61207C22.0204 10.2313 25.5751 14.1601 27.8201 18.6501C28.3813 19.3985 28.3813 20.1468 28.7555 20.8951L31.0005 25.7594C31.7489 27.2561 32.3101 28.7527 33.2456 30.0623C33.8068 30.8107 35.8648 31.1849 36.6131 31.559L38.8581 32.3074L42.2257 34.5524C42.5998 34.9266 44.2836 35.862 44.4707 36.4233Z" fill="#00546B"/>
<path d="M11.169 8.17334L9.85938 8.36043L10.9819 9.67002L11.7302 11.3538V11.1667C12.2915 10.9796 12.4786 10.4184 12.4786 9.67002L12.1044 8.92168L11.169 8.17334Z" fill="#00546B"/>
</g>
<defs>
<clipPath id="clip0_280_372">
<rect width="47.8939" height="47.1456" fill="white" transform="translate(0.318359 0.128418)"/>
</clipPath>
</defs>
</svg>
