<svg width="49" height="22" viewBox="0 0 49 22" fill="none" xmlns="http://www.w3.org/2000/svg">
<g clip-path="url(#clip0_280_376)">
<path d="M18.189 11.0103C17.5529 11.0103 17.0384 11.1974 16.6361 11.5809C16.2339 11.9551 16.0374 12.4509 16.0374 13.0589C16.0269 13.3512 16.0753 13.6427 16.1797 13.9159C16.2842 14.1891 16.4426 14.4385 16.6455 14.6492C16.8513 14.8737 17.2629 15.1731 17.8803 15.5566C18.6286 16.0243 19.1338 16.3985 19.377 16.6792C19.6109 16.9785 19.7231 17.2779 19.7231 17.6053C19.7231 18.0262 19.5828 18.3723 19.2928 18.6343C18.9665 18.8995 18.5527 19.033 18.1329 19.0085C17.8788 19.0111 17.6267 18.9623 17.3921 18.8649C17.1574 18.7674 16.9449 18.6234 16.7674 18.4416C16.5899 18.2597 16.4511 18.0438 16.3594 17.8068C16.2677 17.5698 16.225 17.3167 16.2339 17.0627H16V19.2049H16.2339C16.3087 18.9991 16.4022 18.8962 16.5332 18.8962C16.5987 18.8962 16.7484 18.9336 16.9729 19.0178C17.5342 19.2143 17.9925 19.3172 18.348 19.3172C18.6439 19.3232 18.9378 19.2682 19.2114 19.1556C19.4851 19.0429 19.7325 18.875 19.9383 18.6623C20.323 18.2934 20.5585 17.7959 20.5999 17.2645C20.6413 16.7332 20.4857 16.2052 20.1628 15.7811C19.8822 15.4069 19.3209 14.9766 18.479 14.4715C17.9582 14.1956 17.4846 13.8388 17.0758 13.4144C16.8606 13.1338 16.7484 12.8438 16.7484 12.507C16.7484 12.1515 16.8887 11.8522 17.1413 11.6464C17.4032 11.4312 17.7493 11.319 18.1703 11.319C18.6567 11.319 19.059 11.4593 19.377 11.7493C19.6857 12.0299 19.8728 12.4415 19.9289 12.9467H20.1628V11.1038H19.9476C19.9342 11.1702 19.9088 11.2336 19.8728 11.2909C19.8447 11.319 19.8073 11.3283 19.7418 11.3283C19.6043 11.3148 19.469 11.2833 19.3396 11.2348C18.9703 11.101 18.5817 11.0283 18.189 11.0196V11.0103ZM25.8972 11.0103C25.1598 11.0031 24.4337 11.1916 23.7928 11.5564C23.1519 11.9212 22.6192 12.4493 22.2489 13.087C21.8229 13.8166 21.6345 14.6607 21.7099 15.5022C21.7854 16.3437 22.1209 17.1408 22.6698 17.783C23.3247 18.5501 24.1011 19.0272 25.0085 19.2143C25.2049 19.3172 25.5043 19.5978 25.8878 20.0562C26.3275 20.552 26.6923 20.9262 27.001 21.1413C27.6065 21.5782 28.3411 21.7989 29.0871 21.7681C29.5829 21.7681 30.0226 21.6839 30.3967 21.5155L30.3126 21.3003C30.0256 21.4101 29.7161 21.4479 29.4111 21.4104C29.1062 21.3729 28.8151 21.2612 28.5632 21.0852C28.2265 20.8513 27.7868 20.421 27.2723 19.7755C27.1205 19.5712 26.9515 19.3803 26.7672 19.2049C27.7587 19.0178 28.5726 18.5314 29.1994 17.7643C29.8209 17.0337 30.1595 16.1042 30.1535 15.145C30.1643 14.5963 30.0599 14.0515 29.8473 13.5455C29.6346 13.0396 29.3183 12.5839 28.9187 12.2077C28.5198 11.8141 28.0461 11.5045 27.5255 11.2973C27.0049 11.09 26.448 10.9892 25.8878 11.0009L25.8972 11.0103ZM30.7054 11.0103L30.7148 11.2628C31.2293 11.2628 31.5193 11.4219 31.5848 11.7306C31.6128 11.8335 31.6222 12.0393 31.6222 12.3293V17.9046C31.6222 18.3256 31.5567 18.5875 31.4351 18.7091C31.3322 18.8214 31.1358 18.8962 30.8551 18.9243L30.8458 19.1675H36.0002L36.1311 17.9046H35.8973C35.8318 18.2507 35.6821 18.494 35.4295 18.6343C35.016 18.8079 34.5673 18.8817 34.1199 18.8494H33.6334C33.0722 18.8494 32.7448 18.6436 32.6512 18.232C32.6325 18.1478 32.6325 18.0636 32.6325 17.9701L32.6512 12.3293C32.6512 11.9177 32.698 11.637 32.8102 11.4967C32.9225 11.3657 33.1189 11.2816 33.4089 11.2628L33.3902 11.0103H30.7054ZM25.972 11.319C26.3881 11.3101 26.8003 11.4005 27.1744 11.5827C27.5486 11.7649 27.874 12.0337 28.1236 12.3667C28.7136 13.1969 29.0039 14.203 28.9468 15.2198C28.9468 16.3705 28.6661 17.2872 28.1142 17.9795C27.851 18.3125 27.5132 18.5791 27.1282 18.7578C26.7431 18.9365 26.3215 19.0224 25.8972 19.0085C25.0085 19.0085 24.2882 18.653 23.7456 17.942C23.1645 17.139 22.8712 16.1634 22.9131 15.1731C22.9131 14.0037 23.1937 13.0683 23.755 12.3667C24.3069 11.6651 25.0459 11.319 25.972 11.319ZM37.843 12.5164C37.7214 12.5164 37.6185 12.5631 37.553 12.6473C37.4782 12.7409 37.4595 12.8344 37.4782 12.9654C37.5079 13.092 37.5806 13.2045 37.684 13.2834C37.7869 13.377 37.9085 13.4144 38.0301 13.4144C38.1517 13.4144 38.2453 13.3676 38.3108 13.2834C38.3762 13.1899 38.4043 13.087 38.3762 12.9654C38.3482 12.8344 38.2827 12.7315 38.1891 12.6473C38.0935 12.563 37.9705 12.5165 37.843 12.5164ZM41.2481 13.377C41.0329 14.2002 40.5652 14.6399 39.8543 14.7147L39.8636 14.9486H40.6962L40.6775 17.7362C40.6775 18.2133 40.6962 18.5314 40.7242 18.6904C40.8178 19.0833 41.061 19.2797 41.482 19.2797C42.0994 19.2797 42.7355 18.9056 43.409 18.1572L43.2032 17.9888C42.7168 18.4752 42.2958 18.7185 41.9216 18.7185C41.6878 18.7185 41.5474 18.5875 41.4913 18.3256L41.4726 18.1011V14.9486H42.7542L42.7355 14.5744H41.482V13.377H41.2481ZM46.1499 14.4247C45.439 14.4247 44.8683 14.7708 44.4193 15.4537C44.1989 15.7861 44.0486 16.16 43.9779 16.5525C43.9071 16.945 43.9172 17.3478 44.0077 17.7362C44.0808 18.1768 44.3019 18.5794 44.6345 18.8775C44.9684 19.1515 45.3908 19.2945 45.8225 19.2797C46.2622 19.2797 46.8889 19.1675 47.1415 18.9336C47.4034 18.7091 47.6467 18.3443 47.8712 17.8391L47.6841 17.652C47.5233 17.9385 47.2919 18.1792 47.0119 18.3511C46.732 18.523 46.4127 18.6205 46.0844 18.6343C45.3361 18.6343 44.887 18.232 44.7187 17.4182L44.6719 17.0908C45.3915 17.0136 46.08 16.7562 46.6738 16.3424C47.1228 15.9869 47.5718 15.6034 47.4876 15.2105C47.4403 14.9845 47.3101 14.7843 47.1228 14.6492C46.9357 14.4995 46.4306 14.4247 46.1499 14.4247ZM38.3856 14.4528L36.8608 14.8082V15.0795L37.394 15.014C37.6466 15.014 37.7962 15.1263 37.843 15.3602C37.8617 15.435 37.8711 15.5473 37.8804 15.6782L37.8617 18.1853C37.8617 18.5314 37.815 18.7278 37.7401 18.7933C37.6653 18.8494 37.4595 18.8869 37.1227 18.8869V19.1207H39.5456V18.8869C39.1994 18.8869 38.9843 18.8588 38.8907 18.8027C38.7972 18.7559 38.7224 18.6623 38.6943 18.522C38.6756 18.4098 38.6662 18.232 38.6569 17.9888L38.6662 14.4528H38.3856ZM45.7664 14.9205C45.916 14.9205 46.047 14.9766 46.1967 15.0889C46.3261 15.1781 46.419 15.3109 46.4586 15.4631C46.5896 16.1179 46.0002 16.5856 44.6812 16.8382C44.6347 16.3833 44.7225 15.9247 44.9338 15.5192C45.149 15.1169 45.4296 14.9205 45.7664 14.9205Z" fill="#003B57"/>
<path d="M15.3393 0.972734H2.15864C1.28866 0.972734 0.568359 1.69304 0.568359 2.56302V17.0814C0.568359 17.9607 1.28866 18.6904 2.168 18.6904H10.8397C10.7462 14.3685 12.2149 5.99616 15.3299 0.963379L15.3393 0.972734Z" fill="#0F80CC"/>
<path d="M14.8613 1.44043H2.15771C1.54966 1.44043 1.03516 1.94558 1.03516 2.56298V16.0336C3.90702 14.9298 8.2195 13.9756 11.2036 14.0224C12.1211 9.74752 13.3403 5.54301 14.8519 1.44043H14.8613Z" fill="url(#paint0_linear_280_376)"/>
<path d="M18.4073 0.495499C17.5092 -0.308997 16.4148 0.00905963 15.339 0.96323C15.1732 1.11209 15.014 1.26815 14.8619 1.43096C13.019 3.39543 11.3071 7.01567 10.7739 9.77528C11.0175 10.3047 11.1995 10.8602 11.3165 11.431L11.3913 11.7585L11.3071 11.4965C11.2826 11.434 11.2576 11.3716 11.2323 11.3094C11.0478 10.9243 10.8481 10.5467 10.6336 10.1775L10.3062 11.2065C10.7271 11.9736 10.9891 13.302 10.9891 13.302L10.8581 12.9184C10.7646 12.6471 10.2968 11.8239 10.1846 11.6368C9.99749 12.3384 9.92265 12.8155 9.98813 12.9278C10.1191 13.1523 10.2407 13.5358 10.3623 13.9568C10.5442 14.7288 10.6878 15.5093 10.7926 16.2954C10.7646 17.0999 10.7833 17.9419 10.8394 18.6996C10.8775 19.4896 11.0255 20.2704 11.2791 21.0195L11.4194 20.9447C11.1039 19.8197 10.9806 18.6495 11.0546 17.4835C11.1387 15.3787 11.6158 12.8529 12.5139 10.2149C14.0106 6.23923 16.106 3.04931 18.0144 1.51515C16.2744 3.10544 13.9171 8.19435 13.2061 10.084C12.4642 12.0244 11.9006 14.0283 11.5223 16.0709C12.1023 14.2936 13.9919 13.5265 13.9919 13.5265C13.9919 13.5265 14.9087 12.3852 15.9938 10.7575C15.295 10.9069 14.6048 11.0942 13.9264 11.3188L13.2622 11.5994C13.2622 11.5994 14.9554 10.5704 16.4148 10.1027C18.4353 6.94083 20.6056 2.45997 18.4073 0.495499Z" fill="#003B57"/>
</g>
<defs>
<linearGradient id="paint0_linear_280_376" x1="798.802" y1="30.6268" x2="798.802" y2="1379.04" gradientUnits="userSpaceOnUse">
<stop stop-color="#97D9F6"/>
<stop offset="0.92" stop-color="#0F80CC"/>
<stop offset="1" stop-color="#0F80CC"/>
</linearGradient>
<clipPath id="clip0_280_376">
<rect width="47.8956" height="21.3285" fill="white" transform="translate(0.568359 0.0371094)"/>
</clipPath>
</defs>
</svg>
