<svg width="33" height="21" viewBox="0 0 33 21" fill="none" xmlns="http://www.w3.org/2000/svg">
<g clip-path="url(#clip0_280_342)">
<mask id="mask0_280_342" style="mask-type:luminance" maskUnits="userSpaceOnUse" x="0" y="0" width="33" height="20">
<path d="M0.515625 0.701172H32.5156V19.9012H0.515625V0.701172Z" fill="white"/>
</mask>
<g mask="url(#mask0_280_342)">
<path fill-rule="evenodd" clip-rule="evenodd" d="M16.5156 0.701172C12.249 0.701172 9.58229 2.83451 8.51562 7.10117C10.1156 4.96784 11.9823 4.16784 14.1156 4.70117C15.3328 5.00517 16.2027 5.88873 17.1657 6.86591C18.7343 8.45821 20.55 10.3012 24.5156 10.3012C28.7823 10.3012 31.449 8.16784 32.5156 3.90117C30.9156 6.03451 29.049 6.83451 26.9156 6.30117C25.6984 5.99717 24.8285 5.11362 23.8656 4.13643C22.297 2.54413 20.4813 0.701172 16.5156 0.701172ZM8.51562 10.3012C4.24896 10.3012 1.58229 12.4345 0.515625 16.7012C2.11563 14.5678 3.98229 13.7678 6.11562 14.3012C7.33281 14.6058 8.20274 15.4887 9.1657 16.4659C10.7343 18.0582 12.55 19.9012 16.5156 19.9012C20.7823 19.9012 23.449 17.7678 24.5156 13.5012C22.9156 15.6345 21.049 16.4345 18.9156 15.9012C17.6984 15.5972 16.8285 14.7136 15.8656 13.7364C14.297 12.1441 12.4813 10.3012 8.51562 10.3012Z" fill="#38BDF8"/>
</g>
</g>
<defs>
<clipPath id="clip0_280_342">
<rect width="32" height="19.5556" fill="white" transform="translate(0.515625 0.701172)"/>
</clipPath>
</defs>
</svg>
