<svg width="33" height="33" viewBox="0 0 33 33" fill="none" xmlns="http://www.w3.org/2000/svg">
<g clip-path="url(#clip0_280_338)">
<path d="M3.26562 0.701172H30.2656C31.6464 0.701172 32.7656 1.82042 32.7656 3.20117V30.2012C32.7656 31.5819 31.6464 32.7012 30.2656 32.7012H3.26562C1.88488 32.7012 0.765625 31.5819 0.765625 30.2012V3.20117C0.765625 1.82042 1.88488 0.701172 3.26562 0.701172Z" fill="#3178C6"/>
<path d="M19.5804 25.7605V29.213C20.1419 29.5008 20.806 29.7165 21.5726 29.8604C22.3392 30.0043 23.1472 30.0762 23.9967 30.0762C24.8245 30.0762 25.611 29.997 26.356 29.8388C27.101 29.6805 27.7544 29.4198 28.3158 29.0567C28.8773 28.6934 29.3218 28.2187 29.6494 27.6324C29.9769 27.0463 30.1406 26.3217 30.1406 25.4585C30.1406 24.8328 30.047 24.2843 29.8599 23.8132C29.6748 23.3452 29.3996 22.9182 29.05 22.5563C28.6974 22.1894 28.2744 21.8604 27.7814 21.569C27.2882 21.2778 26.7321 21.0027 26.113 20.7438C25.6595 20.5567 25.2529 20.3752 24.8929 20.1989C24.533 20.0227 24.227 19.8429 23.9751 19.6594C23.7231 19.476 23.5287 19.2818 23.392 19.0768C23.2553 18.8718 23.1869 18.6399 23.1869 18.3809C23.1869 18.1435 23.248 17.9297 23.3704 17.739C23.4928 17.5484 23.6656 17.3848 23.8888 17.2482C24.1119 17.1114 24.3854 17.0054 24.7094 16.9298C25.0333 16.8543 25.3932 16.8165 25.7891 16.8165C26.0771 16.8165 26.3813 16.8382 26.7015 16.8813C27.0219 16.9244 27.344 16.9909 27.668 17.0809C27.991 17.1705 28.3068 17.2841 28.6127 17.4208C28.9095 17.5523 29.1932 17.7112 29.4604 17.8954V14.6695C28.9349 14.4682 28.3608 14.3189 27.7381 14.2218C27.1155 14.1247 26.401 14.0762 25.5947 14.0762C24.7741 14.0762 23.9967 14.1643 23.2625 14.3405C22.5283 14.5167 21.8821 14.7918 21.3242 15.1658C20.7664 15.5399 20.3255 16.0164 20.0015 16.5954C19.6776 17.1744 19.5156 17.8667 19.5156 18.6723C19.5156 19.7008 19.8125 20.5783 20.4065 21.3048C21.0004 22.0312 21.9019 22.6462 23.1112 23.1497C23.5577 23.3315 24.0005 23.5222 24.4394 23.7215C24.8498 23.9085 25.2043 24.1027 25.503 24.304C25.8018 24.5054 26.0375 24.7248 26.2103 24.9622C26.383 25.1995 26.4694 25.4693 26.4694 25.7714C26.4708 25.9889 26.4149 26.2028 26.3074 26.3918C26.1995 26.5823 26.0356 26.7478 25.8161 26.888C25.5966 27.0283 25.323 27.1379 24.9955 27.217C24.668 27.2962 24.2846 27.3358 23.8455 27.3358C23.0969 27.3358 22.3555 27.2045 21.6213 26.9419C20.8869 26.6794 20.2066 26.2857 19.5804 25.7605ZM13.8259 17.1689H18.2656V14.3262H5.89062V17.1689H10.3088V29.8262H13.8259V17.1689Z" fill="white"/>
</g>
<defs>
<clipPath id="clip0_280_338">
<rect width="32" height="32" fill="white" transform="translate(0.765625 0.701172)"/>
</clipPath>
</defs>
</svg>
