<svg width="27" height="33" viewBox="0 0 27 33" fill="none" xmlns="http://www.w3.org/2000/svg">
<path d="M13.5156 11.1343V26.7202" stroke="#0055AB" stroke-width="2.22667" stroke-linecap="round" stroke-linejoin="round"/>
<path d="M3.4961 23.3804C3.20083 23.3804 2.91767 23.2631 2.70889 23.0543C2.5001 22.8455 2.38281 22.5624 2.38281 22.2671V7.79444C2.38281 7.49917 2.5001 7.21601 2.70889 7.00723C2.91767 6.79844 3.20083 6.68115 3.4961 6.68115H9.06251C10.2436 6.68115 11.3762 7.15032 12.2114 7.98544C13.0465 8.82057 13.5156 9.95324 13.5156 11.1343C13.5156 9.95324 13.9848 8.82057 14.8199 7.98544C15.6551 7.15032 16.7877 6.68115 17.9688 6.68115H23.5352C23.8305 6.68115 24.1136 6.79844 24.3224 7.00723C24.5312 7.21601 24.6485 7.49917 24.6485 7.79444V22.2671C24.6485 22.5624 24.5312 22.8455 24.3224 23.0543C24.1136 23.2631 23.8305 23.3804 23.5352 23.3804H16.8555C15.9697 23.3804 15.1202 23.7323 14.4939 24.3586C13.8675 24.985 13.5156 25.8345 13.5156 26.7203C13.5156 25.8345 13.1638 24.985 12.5374 24.3586C11.9111 23.7323 11.0616 23.3804 10.1758 23.3804H3.4961Z" stroke="#0055AB" stroke-width="2.22667" stroke-linecap="round" stroke-linejoin="round"/>
</svg>
