<svg width="17" height="17" viewBox="0 0 17 17" fill="none" xmlns="http://www.w3.org/2000/svg">
<path d="M15.1826 11.8735V13.8735C15.1833 14.0592 15.1453 14.2429 15.0709 14.4131C14.9965 14.5832 14.8874 14.7359 14.7506 14.8614C14.6138 14.9869 14.4523 15.0825 14.2764 15.142C14.1005 15.2014 13.9142 15.2235 13.7292 15.2068C11.6778 14.9839 9.70724 14.2829 7.97591 13.1602C6.36512 12.1366 4.99946 10.7709 3.97591 9.16016C2.84922 7.42096 2.14807 5.44082 1.92924 3.38016C1.91258 3.1958 1.93449 3.01 1.99357 2.83457C2.05266 2.65915 2.14762 2.49795 2.27242 2.36124C2.39721 2.22452 2.54911 2.1153 2.71843 2.0405C2.88776 1.96571 3.0708 1.927 3.25591 1.92682H5.25591C5.57944 1.92364 5.8931 2.03821 6.13841 2.24918C6.38373 2.46015 6.54396 2.75312 6.58924 3.07349C6.67365 3.71353 6.83021 4.34197 7.05591 4.94682C7.1456 5.18544 7.16501 5.44477 7.11184 5.69408C7.05867 5.94339 6.93515 6.17223 6.75591 6.35349L5.90924 7.20016C6.85828 8.86919 8.24021 10.2511 9.90924 11.2002L10.7559 10.3535C10.9372 10.1742 11.166 10.0507 11.4153 9.99755C11.6646 9.94438 11.924 9.96379 12.1626 10.0535C12.7674 10.2792 13.3959 10.4357 14.0359 10.5202C14.3598 10.5658 14.6555 10.729 14.8669 10.9785C15.0783 11.228 15.1907 11.5465 15.1826 11.8735Z" stroke="#0055AB" stroke-width="1.33333" stroke-linecap="round" stroke-linejoin="round"/>
</svg>
