<svg width="13" height="13" viewBox="0 0 13 13" fill="none" xmlns="http://www.w3.org/2000/svg">
<path d="M10.5156 5.94092C10.5156 8.43742 7.74612 11.0374 6.81612 11.8404C6.72949 11.9056 6.62402 11.9408 6.51562 11.9408C6.40723 11.9408 6.30176 11.9056 6.21513 11.8404C5.28513 11.0374 2.51562 8.43742 2.51562 5.94092C2.51562 4.88005 2.93705 3.86264 3.6872 3.11249C4.43734 2.36235 5.45476 1.94092 6.51562 1.94092C7.57649 1.94092 8.59391 2.36235 9.34405 3.11249C10.0942 3.86264 10.5156 4.88005 10.5156 5.94092Z" stroke="#484848" stroke-linecap="round" stroke-linejoin="round"/>
<path d="M6.51562 7.44092C7.34405 7.44092 8.01562 6.76935 8.01562 5.94092C8.01562 5.11249 7.34405 4.44092 6.51562 4.44092C5.6872 4.44092 5.01562 5.11249 5.01562 5.94092C5.01562 6.76935 5.6872 7.44092 6.51562 7.44092Z" stroke="#484848" stroke-linecap="round" stroke-linejoin="round"/>
</svg>
