<svg width="17" height="17" viewBox="0 0 17 17" fill="none" xmlns="http://www.w3.org/2000/svg">
<path d="M10.5148 15.6075V12.9408C10.6076 12.1057 10.3681 11.2676 9.84817 10.6075C11.8482 10.6075 13.8482 9.27417 13.8482 6.94084C13.9015 6.1075 13.6682 5.2875 13.1815 4.6075C13.3682 3.84084 13.3682 3.04084 13.1815 2.27417C13.1815 2.27417 12.5148 2.27417 11.1815 3.27417C9.4215 2.94084 7.60817 2.94084 5.84817 3.27417C4.51484 2.27417 3.84817 2.27417 3.84817 2.27417C3.64817 3.04084 3.64817 3.84084 3.84817 4.6075C3.36275 5.28476 3.12715 6.10936 3.1815 6.94084C3.1815 9.27417 5.1815 10.6075 7.1815 10.6075C6.9215 10.9342 6.72817 11.3075 6.61484 11.7075C6.5015 12.1075 6.46817 12.5275 6.51484 12.9408V15.6075" stroke="#161616" stroke-width="1.33333" stroke-linecap="round" stroke-linejoin="round"/>
<path d="M6.51628 12.941C3.50961 14.2743 3.18294 11.6077 1.84961 11.6077" stroke="#161616" stroke-width="1.33333" stroke-linecap="round" stroke-linejoin="round"/>
</svg>
