<svg width="17" height="17" viewBox="0 0 17 17" fill="none" xmlns="http://www.w3.org/2000/svg">
<path d="M11.1816 6.27417C12.2425 6.27417 13.2599 6.6956 14.0101 7.44574C14.7602 8.19589 15.1816 9.2133 15.1816 10.2742V14.9408H12.515V10.2742C12.515 9.92055 12.3745 9.58141 12.1244 9.33136C11.8744 9.08131 11.5353 8.94084 11.1816 8.94084C10.828 8.94084 10.4889 9.08131 10.2388 9.33136C9.98878 9.58141 9.84831 9.92055 9.84831 10.2742V14.9408H7.18164V10.2742C7.18164 9.2133 7.60307 8.19589 8.35321 7.44574C9.10336 6.6956 10.1208 6.27417 11.1816 6.27417Z" stroke="#161616" stroke-width="1.33333" stroke-linecap="round" stroke-linejoin="round"/>
<path d="M4.51628 6.94092H1.84961V14.9409H4.51628V6.94092Z" stroke="#161616" stroke-width="1.33333" stroke-linecap="round" stroke-linejoin="round"/>
<path d="M3.18294 4.94084C3.91932 4.94084 4.51628 4.34388 4.51628 3.6075C4.51628 2.87112 3.91932 2.27417 3.18294 2.27417C2.44656 2.27417 1.84961 2.87112 1.84961 3.6075C1.84961 4.34388 2.44656 4.94084 3.18294 4.94084Z" stroke="#161616" stroke-width="1.33333" stroke-linecap="round" stroke-linejoin="round"/>
</svg>
